<svg xmlns="http://www.w3.org/2000/svg" viewBox="0 0 32 32" id="dental-report"><path fill="#e0e0e2" d="M25.5,31.5H6.5a2,2,0,0,1-2-2V2.5a2,2,0,0,1,2-2H20.50033L27.5,7.50049V29.5A2,2,0,0,1,25.5,31.5Z"></path><path fill="#fff" d="M22.5 7.5H8.5a1 1 0 0 1-1-1v-2a1 1 0 0 1 1-1h12zM13.72886 19.272l-1.03-2.16658a.75754.75754 0 0 0-1.35574 0l-1.03 2.16658a.41214.41214 0 0 1-.72692.01966l-.2063-.37666a4.22822 4.22822 0 0 1-.2936-3.41256l.00693-.02016a1.15054 1.15054 0 0 0-.00108-.76035l-.65227-1.85955a1.81858 1.81858 0 0 1 2.28-2.287l.9518.27036a1.28 1.28 0 0 0 .69855 0l.9518-.27036a1.81858 1.81858 0 0 1 2.28 2.287L14.94983 14.722a1.151 1.151 0 0 0-.00244.7564h0a4.286 4.286 0 0 1-.29848 3.46062l-.19316.35268A.41212.41212 0 0 1 13.72886 19.272z"></path><path fill="#afaeb3" d="M27.5,7.5h-5a2,2,0,0,1-2-2V.5Z"></path><path d="M24.5,28H7.5a.5.5,0,0,0,0,1h17a.5.5,0,0,0,0-1ZM7.96826,13.02783l.65234,1.85986a.67307.67307,0,0,1-.00684.45215,4.74667,4.74667,0,0,0,.32764,3.81592l.20654.37549a.89065.89065,0,0,0,.82275.46826.901.901,0,0,0,.79395-.5127l1.03027-2.167a.25768.25768,0,0,1,.45215.00049l1.03027,2.1665a.901.901,0,0,0,.79395.5127L14.09766,20a.90212.90212,0,0,0,.79639-.46826l.19336-.35254a4.80681,4.80681,0,0,0,.33252-3.86328.65038.65038,0,0,1,.00146-.42822l.65234-1.85986a2.20931,2.20931,0,0,0-.48975-2.28076,2.38354,2.38354,0,0,0-2.39844-.65283l-.95215.27051a.76619.76619,0,0,1-.4248,0l-.95215-.27051a2.38167,2.38167,0,0,0-2.39844.65283A2.20931,2.20931,0,0,0,7.96826,13.02783Zm1.21826-1.59521a1.3853,1.3853,0,0,1,1.39648-.37646l.95215.27051a1.76671,1.76671,0,0,0,.97168,0l.95215-.27051a1.38409,1.38409,0,0,1,1.39648.37646,1.2259,1.2259,0,0,1,.2749,1.26416L14.478,14.55664a1.65781,1.65781,0,0,0-.00342,1.08447,3.80373,3.80373,0,0,1-.26416,3.05762l-.0874.2373-.97266-2.04492a1.25726,1.25726,0,0,0-2.25879-.00049L9.939,18.89453l-.12061-.21973A3.756,3.756,0,0,1,9.56592,15.645a1.64138,1.64138,0,0,0-.002-1.08838l-.65234-1.85986A1.2259,1.2259,0,0,1,9.18652,11.43262ZM18.5,11h3a.5.5,0,0,0,0-1h-3a.5.5,0,0,0,0,1Zm0,3h6a.5.5,0,0,0,0-1h-6a.5.5,0,0,0,0,1Zm6,11H7.5a.5.5,0,0,0,0,1h17a.5.5,0,0,0,0-1ZM27.98718,7.436a.45448.45448,0,0,0-.01257-.06323.4922.4922,0,0,0-.11981-.22382l-.00128-.00244L24.35376,3.64673,20.854.14648a.492.492,0,0,0-.229-.1217.4703.4703,0,0,0-.05811-.01154A.48425.48425,0,0,0,20.50049,0H6.5A2.50294,2.50294,0,0,0,4,2.5v27A2.50294,2.50294,0,0,0,6.5,32h19A2.50294,2.50294,0,0,0,28,29.5V7.50049A.48634.48634,0,0,0,27.98718,7.436ZM21,1.707l2.64673,2.64673L26.2926,7H22.5A1.50164,1.50164,0,0,1,21,5.5ZM20.51276,7H8.5A.50034.50034,0,0,1,8,6.5v-2A.50034.50034,0,0,1,8.5,4H20V5.5A2.47587,2.47587,0,0,0,20.51276,7ZM27,29.5A1.50164,1.50164,0,0,1,25.5,31H6.5A1.50164,1.50164,0,0,1,5,29.5V2.5A1.50164,1.50164,0,0,1,6.5,1H20V3H8.5A1.50164,1.50164,0,0,0,7,4.5v2A1.50164,1.50164,0,0,0,8.5,8H27ZM18.5,17h6a.5.5,0,0,0,0-1h-6a.5.5,0,0,0,0,1Zm0,3h6a.5.5,0,0,0,0-1h-6a.5.5,0,0,0,0,1Zm6,2H7.5a.5.5,0,0,0,0,1h17a.5.5,0,0,0,0-1Z"></path></svg>