<svg width="20" height="20" viewBox="0 0 20 20" fill="none" xmlns="http://www.w3.org/2000/svg">
<path d="M6.0197 8.99976C5.8222 8.99976 5.62913 9.0584 5.46491 9.16829C5.3007 9.27817 5.1727 9.43435 5.09712 9.61707C5.02154 9.7998 5.00177 10.0009 5.0403 10.1948C5.07883 10.3888 5.17394 10.567 5.31359 10.7069C5.45325 10.8467 5.63118 10.942 5.82489 10.9805C6.01859 11.0191 6.21938 10.9993 6.40185 10.9236C6.58432 10.8479 6.74027 10.7198 6.85 10.5553C6.95973 10.3909 7.01829 10.1975 7.01829 9.99976C7.01829 9.73454 6.91309 9.48019 6.72581 9.29265C6.53854 9.10511 6.28455 8.99976 6.0197 8.99976ZM10.0141 8.99976C9.81657 8.99976 9.6235 9.0584 9.45928 9.16829C9.29507 9.27817 9.16708 9.43435 9.09149 9.61707C9.01591 9.7998 8.99614 10.0009 9.03467 10.1948C9.0732 10.3888 9.16831 10.567 9.30796 10.7069C9.44762 10.8467 9.62555 10.942 9.81926 10.9805C10.013 11.0191 10.2137 10.9993 10.3962 10.9236C10.5787 10.8479 10.7346 10.7198 10.8444 10.5553C10.9541 10.3909 11.0127 10.1975 11.0127 9.99976C11.0127 9.73454 10.9075 9.48019 10.7202 9.29265C10.5329 9.10511 10.2789 8.99976 10.0141 8.99976ZM14.0084 8.99976C13.8109 8.99976 13.6179 9.0584 13.4537 9.16829C13.2894 9.27817 13.1614 9.43435 13.0859 9.61707C13.0103 9.7998 12.9905 10.0009 13.029 10.1948C13.0676 10.3888 13.1627 10.567 13.3023 10.7069C13.442 10.8467 13.6199 10.942 13.8136 10.9805C14.0073 11.0191 14.2081 10.9993 14.3906 10.9236C14.5731 10.8479 14.729 10.7198 14.8387 10.5553C14.9485 10.3909 15.007 10.1975 15.007 9.99976C15.007 9.73454 14.9018 9.48019 14.7146 9.29265C14.5273 9.10511 14.2733 8.99976 14.0084 8.99976ZM10.0141 -0.000244141C8.7027 -0.000244141 7.40417 0.258414 6.19262 0.760961C4.98108 1.26351 3.88024 2.0001 2.95296 2.92869C1.08023 4.80405 0.0281467 7.34759 0.0281467 9.99976C0.0194168 12.3089 0.817826 14.5483 2.28497 16.3298L0.287781 18.3298C0.149218 18.4704 0.0553545 18.649 0.0180329 18.8429C-0.0192886 19.0369 0.00160464 19.2376 0.0780763 19.4198C0.161017 19.5997 0.295474 19.7509 0.464379 19.8541C0.633283 19.9574 0.829019 20.0081 1.02674 19.9998H10.0141C12.6625 19.9998 15.2025 18.9462 17.0752 17.0708C18.9479 15.1955 20 12.6519 20 9.99976C20 7.34759 18.9479 4.80405 17.0752 2.92869C15.2025 1.05332 12.6625 -0.000244141 10.0141 -0.000244141ZM10.0141 17.9998H3.43335L4.36204 17.0698C4.45639 16.9771 4.53146 16.8667 4.58288 16.7448C4.63431 16.6229 4.66107 16.4921 4.66162 16.3598C4.65786 16.096 4.55019 15.8444 4.36204 15.6598C3.05447 14.3518 2.2402 12.6303 2.05798 10.7885C1.87575 8.94681 2.33684 7.09876 3.36267 5.55928C4.38851 4.01979 5.91564 2.88411 7.68387 2.34573C9.4521 1.80734 11.352 1.89956 13.06 2.60667C14.7679 3.31378 16.1782 4.59203 17.0506 6.22365C17.923 7.85526 18.2034 9.7393 17.8442 11.5548C17.4849 13.3702 16.5082 15.0048 15.0805 16.18C13.6527 17.3552 11.8622 17.9983 10.0141 17.9998Z" fill="#80828A"/>
</svg>
