<?xml version="1.0" encoding="utf-8"?>
<!-- Generator: Adobe Illustrator 22.1.0, SVG Export Plug-In . SVG Version: 6.00 Build 0)  -->
<svg version="1.1" id="Icon_Set" xmlns="http://www.w3.org/2000/svg" xmlns:xlink="http://www.w3.org/1999/xlink" x="0px" y="0px"
	 viewBox="0 0 512 512" style="enable-background:new 0 0 512 512;" xml:space="preserve">

		<style type="text/css">
		  .st0{fill:#F0C48A;}
		  .st1{fill:#FD919E;}
		  .st2{fill:#4C4372;}
		  .st3{fill:#D3E6F8;}
		  .st4{fill:#A4CFF2;}
		  .st5{fill:#7BABF1;}
		  .st6{fill:#FFFFFF;}
		  .st7{fill:#E8677D;}
		  .st8{fill:none;stroke:#4C4372;stroke-width:12;stroke-linecap:round;stroke-linejoin:round;stroke-miterlimit:10;}
		</style>
		
	  
	 <!-- <style type="text/css">
	.st0{fill:#F0C48A;}
	.st1{fill:#FD919E;}
	.st2{fill:#4C4372;}
	.st3{fill:#D3E6F8;}
	.st4{fill:#A4CFF2;}
	.st5{fill:#7BABF1;}
	.st6{fill:#FFFFFF;}
	.st7{fill:#E8677D;}
	.st8{fill:none;stroke:#4C4372;stroke-width:12;stroke-linecap:round;stroke-linejoin:round;stroke-miterlimit:10;}
</style> -->
<g id="ID_Card">
	<g>
		<g>
			<circle class="st0" cx="256" cy="256" r="207"/>
		</g>
	</g>
	<g>
		<g>
			<path class="st6" d="M389.712,375.266H122.288c-10.072,0-18.237-8.165-18.237-18.237V180.58c0-10.072,8.165-18.237,18.237-18.237
				h267.424c10.072,0,18.237,8.165,18.237,18.237v176.449C407.949,367.101,399.784,375.266,389.712,375.266z"/>
		</g>
		<g>
			<path class="st3" d="M389.712,162.343h-14.726v212.922h14.726c10.072,0,18.237-8.165,18.237-18.236V180.58
				C407.949,170.508,399.784,162.343,389.712,162.343z"/>
		</g>
		<g>
			<path class="st2" d="M389.712,381.266H122.288c-13.364,0-24.236-10.873-24.236-24.237V180.58
				c0-13.364,10.872-24.237,24.236-24.237h267.424c13.364,0,24.236,10.873,24.236,24.237v176.448
				C413.948,370.393,403.076,381.266,389.712,381.266z M122.288,168.343c-6.747,0-12.236,5.489-12.236,12.237v176.448
				c0,6.748,5.489,12.237,12.236,12.237h267.424c6.747,0,12.236-5.489,12.236-12.237V180.58c0-6.748-5.489-12.237-12.236-12.237
				H122.288z"/>
		</g>
		<g>
			<g>
				<g>
					<rect x="137.014" y="199.009" class="st5" width="109.975" height="139.591"/>
				</g>
				<g>
					<g>
						<path class="st1" d="M246.989,338.6H137.014v-29.859c0-10.294,8.345-18.638,18.638-18.638h72.698
							c10.294,0,18.638,8.345,18.638,18.638V338.6z"/>
					</g>
					<g>
						<path class="st2" d="M246.989,344.6H137.014c-3.313,0-6-2.687-6-6V308.74c0-13.585,11.053-24.638,24.639-24.638h72.698
							c13.586,0,24.639,11.053,24.639,24.638V338.6C252.989,341.913,250.303,344.6,246.989,344.6z M143.014,332.6h97.976V308.74
							c0-6.969-5.67-12.638-12.639-12.638h-72.698c-6.969,0-12.639,5.669-12.639,12.638V332.6z"/>
					</g>
					<g>
						<path class="st3" d="M191.989,311.491L191.989,311.491c-8.058,0-14.591-6.533-14.591-14.591v-26.002h29.182v26.002
							C206.581,304.958,200.048,311.491,191.989,311.491z"/>
					</g>
					<g>
						<path class="st2" d="M191.989,317.49c-11.354,0-20.591-9.237-20.591-20.591v-26.002c0-3.313,2.687-6,6-6h29.182
							c3.313,0,6,2.687,6,6v26.002C212.58,308.253,203.343,317.49,191.989,317.49z M183.398,276.897v20.002
							c0,4.737,3.854,8.591,8.591,8.591s8.591-3.854,8.591-8.591v-20.002H183.398z"/>
					</g>
					<g>
						<path class="st6" d="M192.002,212.969L192.002,212.969c-16.124,0-29.195,13.071-29.195,29.194v14.968
							c0,16.124,13.071,29.194,29.194,29.194h0c16.124,0,29.194-13.071,29.194-29.194v-14.968
							C221.196,226.04,208.125,212.969,192.002,212.969z"/>
					</g>
					<g>
						<path class="st2" d="M192.002,292.326c-19.407,0-35.195-15.788-35.195-35.194v-14.969c0-19.406,15.788-35.194,35.195-35.194
							c19.406,0,35.194,15.788,35.194,35.194v14.969C227.196,276.538,211.408,292.326,192.002,292.326z M192.002,218.969
							c-12.79,0-23.195,10.405-23.195,23.194v14.969c0,12.789,10.405,23.194,23.195,23.194c12.789,0,23.194-10.405,23.194-23.194
							v-14.969C215.196,229.374,204.791,218.969,192.002,218.969z"/>
					</g>
				</g>
				<g>
					<path class="st2" d="M246.989,344.6H137.014c-3.313,0-6-2.687-6-6V199.009c0-3.313,2.687-6,6-6h109.976c3.313,0,6,2.687,6,6
						V338.6C252.989,341.913,250.303,344.6,246.989,344.6z M143.014,332.6h97.976V205.009h-97.976V332.6z"/>
				</g>
			</g>
			<g>
				<path class="st2" d="M374.986,205.009h-86.199c-3.313,0-6-2.687-6-6s2.687-6,6-6h86.199c3.313,0,6,2.687,6,6
					S378.3,205.009,374.986,205.009z"/>
			</g>
			<g>
				<path class="st2" d="M374.986,251.539h-86.199c-3.313,0-6-2.687-6-6s2.687-6,6-6h86.199c3.313,0,6,2.687,6,6
					S378.3,251.539,374.986,251.539z"/>
			</g>
			<g>
				<path class="st2" d="M374.986,298.069h-86.199c-3.313,0-6-2.687-6-6s2.687-6,6-6h86.199c3.313,0,6,2.687,6,6
					S378.3,298.069,374.986,298.069z"/>
			</g>
			<g>
				<path class="st2" d="M374.986,344.6h-86.199c-3.313,0-6-2.687-6-6s2.687-6,6-6h86.199c3.313,0,6,2.687,6,6
					S378.3,344.6,374.986,344.6z"/>
			</g>
		</g>
		<g>
			<path class="st4" d="M286.856,179.41h-61.712c-3.171,0-5.741-2.57-5.741-5.741v-30.856c0-20.212,16.385-36.597,36.597-36.597h0
				c20.212,0,36.597,16.385,36.597,36.597v30.856C292.597,176.839,290.027,179.41,286.856,179.41z"/>
		</g>
		<g>
			<path class="st2" d="M286.855,185.41h-61.711c-6.475,0-11.741-5.267-11.741-11.741v-30.856c0-23.488,19.108-42.597,42.597-42.597
				s42.597,19.108,42.597,42.597v30.856C298.597,180.144,293.33,185.41,286.855,185.41z M225.403,173.41h61.193v-30.598
				c0-16.871-13.726-30.597-30.597-30.597s-30.597,13.726-30.597,30.597V173.41z"/>
		</g>
		<g>
			<circle class="st5" cx="256" cy="141.283" r="13.443"/>
		</g>
		<g>
			<path class="st2" d="M256,160.726c-10.721,0-19.443-8.723-19.443-19.443S245.279,121.84,256,121.84s19.443,8.722,19.443,19.442
				S266.721,160.726,256,160.726z M256,133.84c-4.104,0-7.443,3.339-7.443,7.442c0,4.104,3.339,7.443,7.443,7.443
				s7.443-3.339,7.443-7.443C263.443,137.179,260.104,133.84,256,133.84z"/>
		</g>
	</g>
</g>
</svg>
