<svg width="21" height="22" viewBox="0 0 21 22" fill="none" xmlns="http://www.w3.org/2000/svg">
<path d="M14.6016 11.2707C15.2583 10.7023 15.785 9.99926 16.146 9.20932C16.507 8.41937 16.6938 7.56101 16.6938 6.69249C16.6938 5.06046 16.0455 3.49529 14.8915 2.34127C13.7375 1.18726 12.1723 0.538941 10.5403 0.538941C8.90823 0.538941 7.34305 1.18726 6.18904 2.34127C5.03503 3.49529 4.38671 5.06046 4.38671 6.69249C4.3867 7.56101 4.57353 8.41937 4.93453 9.20932C5.29552 9.99926 5.82224 10.7023 6.47891 11.2707C4.75609 12.0509 3.29441 13.3107 2.26863 14.8995C1.24286 16.4884 0.696392 18.3391 0.69458 20.2303C0.69458 20.5567 0.824244 20.8697 1.05505 21.1005C1.28585 21.3313 1.59888 21.461 1.92529 21.461C2.25169 21.461 2.56473 21.3313 2.79553 21.1005C3.02634 20.8697 3.156 20.5567 3.156 20.2303C3.156 18.2719 3.93398 16.3936 5.3188 15.0088C6.70361 13.624 8.58183 12.846 10.5403 12.846C12.4987 12.846 14.3769 13.624 15.7617 15.0088C17.1465 16.3936 17.9245 18.2719 17.9245 20.2303C17.9245 20.5567 18.0542 20.8697 18.285 21.1005C18.5158 21.3313 18.8288 21.461 19.1552 21.461C19.4816 21.461 19.7947 21.3313 20.0255 21.1005C20.2563 20.8697 20.3859 20.5567 20.3859 20.2303C20.3841 18.3391 19.8377 16.4884 18.8119 14.8995C17.7861 13.3107 16.3244 12.0509 14.6016 11.2707ZM10.5403 10.3846C9.81002 10.3846 9.09619 10.1681 8.48902 9.76238C7.88185 9.35668 7.40862 8.78005 7.12917 8.1054C6.84972 7.43076 6.77661 6.68839 6.91907 5.97219C7.06153 5.25599 7.41317 4.59811 7.92953 4.08176C8.44588 3.56541 9.10375 3.21376 9.81996 3.0713C10.5362 2.92884 11.2785 3.00196 11.9532 3.28141C12.6278 3.56085 13.2045 4.03408 13.6101 4.64125C14.0158 5.24842 14.2324 5.96225 14.2324 6.69249C14.2324 7.6717 13.8434 8.61081 13.151 9.30322C12.4586 9.99562 11.5195 10.3846 10.5403 10.3846Z" fill="#80828A"/>
</svg>
